<svg xmlns="http://www.w3.org/2000/svg" height="24" viewBox="0 -960 960 960" width="24"><path d="M233.078-90v-290h-60v-220q0-29.154 20.423-49.576 20.423-20.423 49.576-20.423h113.846q29.153 0 49.576 20.423 20.423 20.422 20.423 49.576v220h-60v290H233.078ZM300-710.77q-30.692 0-52.269-21.576-21.577-21.577-21.577-52.269 0-30.692 21.577-52.269Q269.308-858.46 300-858.46q30.692 0 52.269 21.577 21.577 21.577 21.577 52.269 0 30.692-21.577 52.269-21.577 21.576-52.269 21.576ZM610.001-90.001V-320H501.54l91.23-302.923q6.846-22.538 25.269-34.807 18.423-12.269 41.961-12.269t41.961 12.269q18.423 12.269 25.269 34.807L818.46-320H709.999v230h-99.998ZM660-710.769q-30.692 0-52.269-21.576-21.577-21.577-21.577-52.269 0-30.692 21.577-52.269Q629.308-858.46 660-858.46q30.692 0 52.269 21.577 21.577 21.577 21.577 52.269 0 30.692-21.577 52.269-21.577 21.576-52.269 21.576Z"/></svg>